# xmcd
#
# Track frame offsets: 
#        150
#        450
#        12089
#        46001
#        64301
#        80094
#        80394
#        109051
#
# Disc length: 2070 seconds
#
# Revision: 0
# Processed by: cddbd v1.5.2PL0 Copyright (c) Steve Scherf et al.
# Submitted via: ExactAudioCopy v1.3
#
DISCID=53081408
DTITLE=Blues Cousins - The Magic World Of Poutka
DYEAR=1996
DGENRE=Electric Blues
TTITLE0=I'm Too Tired
TTITLE1=The Thrill Is Gone
TTITLE2=I'm Drowning On Dry Land
TTITLE3=Shame, Shame
TTITLE4=The Personal Manager
TTITLE5=Crossroads
TTITLE6=You Hurt Me
TTITLE7=Honey Hush
EXTD=
EXTT0=
EXTT1=
EXTT2=
EXTT3=
EXTT4=
EXTT5=
EXTT6=
EXTT7=
PLAYORDER=
